<svg width="982" height="523" viewBox="0 0 982 523" fill="none" xmlns="http://www.w3.org/2000/svg">
<path fill-rule="evenodd" clip-rule="evenodd" d="M50.2279 50.2279V197H52.9628V241.214H50.2279V291.809H159.623V305.028H127.716V307.763H100.367V305.028H50.2279V348.33H52.9628V380.693H50.2279V425.363H153.242H198.367H219.791V340.126H227.995V365.195H233.465V378.87H227.995V425.363H265.372H297.735H301.381H367.019H397.558V217.512H366.107V209.307H397.558V50.6837H367.019V53.4186H292.265V50.2279H227.995V209.307H342.405V217.512H227.995V316.879H219.791V264.005H157.344V241.214H201.102V256.256H219.791V50.2279H150.963V53.8744H76.2093V50.2279H50.2279ZM300.926 332.377H251.698V340.126H300.926V332.377Z" fill="white"/>
<path d="M33.3628 197V6.92558H50.2279V39.7442H76.2093M33.3628 197H50.2279M33.3628 197V425.363H1V436.758H33.3628H153.242M50.2279 197V50.2279H76.2093M50.2279 197H52.9628V241.214H50.2279V291.809H159.623V305.028H127.716V307.763H100.367V305.028H50.2279V348.33H52.9628V380.693H50.2279V425.363H153.242M76.2093 50.2279V39.7442M76.2093 50.2279V53.8744H150.963V50.2279M76.2093 39.7442H150.963M292.265 50.2279V39.7442M292.265 50.2279V53.4186H367.019V50.6837H397.558V209.307H366.107V217.512H397.558V425.363H367.019M292.265 50.2279H227.995M150.963 50.2279V39.7442M150.963 50.2279H219.791M150.963 39.7442V9.20465M150.963 39.7442H292.265M150.963 9.20465V1H292.265V9.20465M150.963 9.20465H292.265M292.265 9.20465V39.7442M292.265 39.7442H397.558V6.92558H405.763V39.7442H441.316M227.995 50.2279V209.307H342.405V217.512H227.995V316.879H219.791V264.005H157.344V241.214H201.102V256.256H219.791V50.2279M227.995 50.2279H219.791M436.758 436.758V425.363H405.763V261.27M436.758 436.758H454.079M436.758 436.758H367.019M454.079 436.758H493.735V521.54H505.586V436.758H513.335M454.079 436.758V425.363H513.335M449.977 255.8H515.158V269.93H575.781V250.786H584.442V255.8H706.6V264.005H701.586M449.977 255.8H441.316V261.27H449.977M449.977 255.8V261.27M449.977 261.27V272.665H458.181V264.005H507.409V302.293M405.763 255.8V217.512H411.233V209.307H405.763V50.6837H441.316M405.763 255.8H414.423V261.27H405.763M405.763 255.8V261.27M507.409 302.293H458.181M507.409 302.293V307.307M458.181 302.293V295H449.977V327.819H458.181V307.307M458.181 302.293V307.307M458.181 307.307H507.409M507.409 307.307V385.251H458.181V360.637H449.977V392.544H512.423V387.074H515.158V278.135H575.781V425.363H545.242M696.572 264.005H584.442V335.112H655.093V302.293H696.572V264.005ZM696.572 264.005H701.586M701.586 264.005V307.307H660.107V335.112H662.842V340.581H584.442V425.363H614.981M931.316 241.214V294.088H850.181V279.958H846.991V302.749H931.316V338.302M931.316 241.214H947.726M931.316 241.214V197M947.726 241.214V247.595H981V256.712M947.726 241.214V197M981 256.712H947.726V338.302M981 256.712V425.363M947.726 338.302V382.516M947.726 338.302H931.316M981 425.363V436.758H830.581M981 425.363H947.726V382.516M931.316 6.92558H947.726V197M931.316 6.92558V39.7442H896.219M931.316 6.92558H762.209M896.219 39.7442V50.6837M896.219 39.7442H794.572M896.219 50.6837H931.316V197M896.219 50.6837H794.572M931.316 197H947.726M947.726 382.516H931.316M931.316 382.516V425.363H830.581M931.316 382.516V338.302M830.581 425.363V436.758M830.581 425.363H785.912M830.581 436.758H785.912M785.912 425.363H762.665V332.377H753.549V425.363H716.628M785.912 425.363V436.758M785.912 436.758H716.628M716.628 436.758V425.363M716.628 436.758H684.265M716.628 425.363H684.265M684.265 436.758V425.363M684.265 436.758H681.074M684.265 425.363H681.074M684.265 425.363V340.581H727.567V335.112H679.707V340.581H681.074V425.363M681.074 436.758V425.363M681.074 436.758H614.981M681.074 425.363H614.981M614.981 436.758V425.363M614.981 436.758H545.242M441.316 50.6837V39.7442M441.316 50.6837H498.749M441.316 39.7442H498.749M498.749 50.6837V39.7442M498.749 50.6837H508.777M498.749 39.7442H508.777M508.777 50.6837V39.7442M508.777 50.6837H541.595M508.777 39.7442H541.595M541.595 50.6837H576.237V209.307H439.037V217.512H575.781V220.702H584.442V217.512H635.949V209.307H584.442V50.6837H609.056M541.595 50.6837V39.7442M609.056 50.6837V39.7442M609.056 50.6837H710.247M609.056 39.7442H584.442V6.92558M609.056 39.7442H710.247M584.442 6.92558H576.237V39.7442H541.595M584.442 6.92558H753.549M762.209 6.92558V39.7442H794.572M762.209 6.92558H753.549M794.572 39.7442V50.6837M794.572 50.6837H762.209V220.247H753.549V217.512H657.828V209.307H753.549V50.6837H710.247M753.549 6.92558V39.7442H710.247M710.247 39.7442V50.6837M513.335 436.758V425.363M513.335 436.758H545.242M513.335 425.363H545.242M545.242 425.363V436.758M367.019 436.758V425.363M367.019 436.758H301.381M367.019 425.363H301.381M301.381 436.758V425.363M301.381 436.758H297.735M301.381 425.363H297.735M297.735 425.363V436.758M297.735 425.363H265.372M297.735 436.758H265.372M265.372 436.758V425.363M265.372 436.758H198.367M265.372 425.363H227.995V378.87H233.465V365.195H227.995V340.126H219.791V425.363H198.367M198.367 436.758V425.363M198.367 436.758H153.242M198.367 425.363H153.242M153.242 436.758V425.363M251.698 332.377H300.926V340.126H251.698V332.377ZM728.479 255.8H850.181V264.005H827.391V267.195H762.665V310.953H753.549V264.005H728.479V255.8Z" stroke="black"/>
</svg>
