<svg width="24" height="24" viewBox="0 0 24 24" fill="none" xmlns="http://www.w3.org/2000/svg">
    <rect width="24" height="24" rx="12" fill="#2BC0CA"/>
    <path d="M15.9389 13.22C15.6899 12.5273 15.3807 11.8604 15.0154 11.228C14.8322 10.8784 14.8239 10.8576 14.7058 10.6448C14.6451 10.5362 14.5752 10.4336 14.4969 10.3384C14.0427 9.71278 13.6135 10.1384 13.8913 10.7328L14.3584 11.6128C14.6882 12.1982 14.9758 12.809 15.219 13.44C15.3702 13.9543 15.4151 14.4969 15.3507 15.0312C15.2996 15.4737 15.1306 15.8918 14.8633 16.2368C14.4987 16.6544 14.0668 17.0003 13.5878 17.2584C12.8309 17.6584 13.3108 18.2448 13.8437 18.0024C14.4571 17.6631 15.0117 17.2165 15.4839 16.6816C15.7841 16.2234 15.9903 15.7041 16.0895 15.1568C16.1715 14.5072 16.1202 13.8466 15.9389 13.22ZM13.2646 5.0336L12.5001 4L11.7356 5.0336C10.6244 6.53599 7.00019 11.6392 7.00019 14.248C6.99423 14.9921 7.13069 15.7298 7.40136 16.4168C7.62847 17.0197 7.95584 17.5749 8.36797 18.056C9.27801 19.1386 10.5396 19.8204 11.9029 19.9663C12.0882 19.9897 12.2748 20.0009 12.4615 19.9999H12.5152C13.297 20.0011 14.0701 19.8269 14.7834 19.4889C15.4968 19.1509 16.1341 18.6568 16.6534 18.0392C17.5215 16.9918 18 15.6468 18 14.2544C18 11.6392 14.3758 6.53599 13.2646 5.0336ZM15.9222 17.36C15.4941 17.8672 14.9693 18.273 14.3822 18.5505C13.7951 18.8281 13.1591 18.9712 12.516 18.9703C12.3478 18.9734 12.1797 18.9646 12.0126 18.9439C10.8882 18.8249 9.84688 18.2648 9.09388 17.3744C8.75647 16.9827 8.48876 16.5298 8.30363 16.0376C8.08104 15.4727 7.96829 14.8663 7.97209 14.2544C7.97134 12.22 10.9453 7.76799 12.5001 5.66559C14.0556 7.76799 17.0296 12.22 17.0296 14.2544C17.0284 15.3971 16.6349 16.5006 15.9222 17.36Z" fill="white"/>
</svg>
