<svg width="16" height="16" viewBox="0 0 16 16" fill="none" xmlns="http://www.w3.org/2000/svg">
    <path d="M10.4867 2H5.51333L2 5.51333V10.4867L5.51333 14H10.4867L14 10.4867V5.51333L10.4867 2ZM12.6667 9.93333L9.93333 12.6667H6.06667L3.33333 9.93333V6.06667L6.06667 3.33333H9.93333L12.6667 6.06667V9.93333Z" fill="#FF4D4F"/>
    <path d="M7.99992 11.3333C8.36811 11.3333 8.66659 11.0349 8.66659 10.6667C8.66659 10.2985 8.36811 10 7.99992 10C7.63173 10 7.33325 10.2985 7.33325 10.6667C7.33325 11.0349 7.63173 11.3333 7.99992 11.3333Z" fill="#FF4D4F"/>
    <path d="M7.33325 4.66602H8.66659V9.33268H7.33325V4.66602Z" fill="#FF4D4F"/>
</svg>
