<svg width="16" height="16" viewBox="0 0 16 16" fill="none" xmlns="http://www.w3.org/2000/svg">
    <path fill-rule="evenodd" clip-rule="evenodd" d="M4.66667 3.33333V2H6V3.33333H10V2H11.3333V3.33333H13.3333C13.7015 3.33333 14 3.63181 14 4V13.3333C14 13.7015 13.7015 14 13.3333 14H2.66667C2.29848 14 2 13.7015 2 13.3333V4C2 3.63181 2.29848 3.33333 2.66667 3.33333H4.66667ZM3.33333 4.66667V6H12.6667V4.66667H3.33333ZM12.6667 7.33333H3.33333V12.6667H12.6667V7.33333ZM4.66667 9.33333H6V10.6667H4.66667V9.33333ZM7.33333 9.33333H8.66667V10.6667H7.33333V9.33333ZM10 9.33333H11.3333V10.6667H10V9.33333Z" fill="#8C96A2"/>
</svg>
