<svg width="16" height="16" viewBox="0 0 16 16" fill="none" xmlns="http://www.w3.org/2000/svg">
    <path d="M7.3335 9.33268V10.666H8.66683V9.33268H7.3335Z" fill="#3A3F48"/>
    <path fill-rule="evenodd" clip-rule="evenodd" d="M4.66683 4.66602V6.66602H4.00016C3.63197 6.66602 3.3335 6.96449 3.3335 7.33268V12.666C3.3335 13.0342 3.63197 13.3327 4.00016 13.3327H12.0002C12.3684 13.3327 12.6668 13.0342 12.6668 12.666V7.33268C12.6668 6.96449 12.3684 6.66602 12.0002 6.66602H11.3335V4.66602C11.3335 3.56145 10.4381 2.66602 9.3335 2.66602H6.66683C5.56226 2.66602 4.66683 3.56145 4.66683 4.66602ZM6.66683 3.99935C6.29864 3.99935 6.00016 4.29783 6.00016 4.66602V6.66602H10.0002V4.66602C10.0002 4.29783 9.70169 3.99935 9.3335 3.99935H6.66683ZM4.66683 7.99935V11.9993H11.3335V7.99935H4.66683Z" fill="#8C96A2"/>
</svg>
