<svg width="16" height="16" viewBox="0 0 16 16" fill="none" xmlns="http://www.w3.org/2000/svg">
    <g clip-path="url(#clip0_102660_3968)">
        <path d="M9.83591 3.75196C9.83591 3.08338 9.02805 2.74855 8.55558 3.22131L6.7969 4.98106C5.37468 6.40416 4.66357 7.11571 4.66357 7.9999C4.66357 8.8841 5.37469 9.59565 6.79691 11.0187L8.55558 12.7785C9.02805 13.2513 9.83591 12.9164 9.83591 12.2478C9.83591 12.0488 9.75689 11.8579 9.61624 11.7172L7.85757 9.95743C7.11647 9.21588 6.6696 8.76423 6.38944 8.39681C6.26013 8.22723 6.20503 8.12363 6.18135 8.0668C6.16345 8.02386 6.16353 8.0087 6.16357 8.00091L6.16357 7.9999L6.16357 7.9989C6.16353 7.99111 6.16345 7.97594 6.18135 7.93301C6.20503 7.87617 6.26013 7.77258 6.38944 7.603C6.6696 7.23558 7.11647 6.78393 7.85757 6.04237L9.61624 4.28262C9.75689 4.14188 9.83591 3.951 9.83591 3.75196Z" fill="#1D2023"/>
    </g>
    <defs>
        <clipPath id="clip0_102660_3968">
            <rect width="16" height="16" fill="white"/>
        </clipPath>
    </defs>
</svg>
