<svg width="24" height="24" viewBox="0 0 24 24" fill="none" xmlns="http://www.w3.org/2000/svg">
    <rect width="23.5538" height="23.0393" rx="11.5197" fill="#2BC0CA"/>
    <path d="M8.28033 6.28033C7.98744 6.57322 7.51256 6.57322 7.21967 6.28033C6.92678 5.98744 6.92678 5.51256 7.21967 5.21967L11.2197 1.21967C11.5126 0.926777 11.9874 0.926777 12.2803 1.21967L16.2803 5.21967C16.5732 5.51256 16.5732 5.98744 16.2803 6.28033C15.9874 6.57322 15.5126 6.57322 15.2197 6.28033L12.5 3.56066L12.5 13.25C12.5 13.6642 12.1642 14 11.75 14C11.3358 14 11 13.6642 11 13.25L11 3.56066L8.28033 6.28033Z" fill="white"/>
    <path d="M15.2516 16.725C15.5433 16.4309 16.0181 16.4289 16.3122 16.7206C16.6063 17.0123 16.6083 17.4872 16.3166 17.7813L12.3332 21.7978C12.0416 22.0919 11.5667 22.0939 11.2726 21.8022L7.25605 17.8188C6.96195 17.5271 6.95998 17.0522 7.25166 16.7581C7.54333 16.464 8.0182 16.4621 8.31231 16.7538L11.0432 19.4621L11.0031 9.77288C11.0014 9.35867 11.3358 9.02149 11.75 9.01978C12.1642 9.01806 12.5014 9.35246 12.5031 9.76667L12.5432 19.4559L15.2516 16.725Z" fill="white"/>
</svg>

