<svg width="34" height="34" viewBox="0 0 34 34" fill="none" xmlns="http://www.w3.org/2000/svg">
    <rect x="0.150024" y="0.150391" width="33.6051" height="33.6051" rx="16.8026" fill="#2BC0CA"/>
    <path d="M27.6279 12.4231C27.4576 12.3412 27.2645 12.298 27.0678 12.298C26.8712 12.298 26.678 12.3412 26.5077 12.4231L22.5535 14.0474C22.5216 13.3226 22.1535 12.6364 21.5267 12.1332C20.8999 11.63 20.0633 11.3491 19.193 11.3496L9.11149 11.3496C8.22022 11.3496 7.36547 11.6447 6.73525 12.1698C6.10503 12.695 5.75098 13.4073 5.75098 14.15L5.75098 19.7509C5.75098 20.4936 6.10503 21.2059 6.73525 21.7311C7.36547 22.2563 8.22022 22.5513 9.11149 22.5513H19.193C20.0633 22.5518 20.8999 22.2709 21.5267 21.7677C22.1535 21.2645 22.5216 20.5783 22.5535 19.8536L26.5413 21.5152C26.694 21.5804 26.8627 21.6155 27.0342 21.6178C27.2439 21.6184 27.4496 21.5699 27.6279 21.4778C27.7893 21.3937 27.9224 21.2768 28.0145 21.1379C28.1066 20.9991 28.1548 20.843 28.1544 20.6844V13.2166C28.1548 13.0579 28.1066 12.9018 28.0145 12.763C27.9224 12.6242 27.7893 12.5072 27.6279 12.4231ZM20.3132 19.7509C20.3132 19.9985 20.1952 20.2359 19.9851 20.411C19.775 20.586 19.4901 20.6844 19.193 20.6844H9.11149C8.8144 20.6844 8.52948 20.586 8.31941 20.411C8.10934 20.2359 7.99132 19.9985 7.99132 19.7509L7.99132 14.15C7.99132 13.9025 8.10934 13.665 8.31941 13.49C8.52948 13.3149 8.8144 13.2166 9.11149 13.2166L19.193 13.2166C19.4901 13.2166 19.775 13.3149 19.9851 13.49C20.1952 13.665 20.3132 13.9025 20.3132 14.15V19.7509ZM25.914 19.1721L22.5535 17.7719V16.129L25.914 14.7288V19.1721Z" fill="white"/>
</svg>
