<svg width="25" height="24" viewBox="0 0 25 24" fill="none" xmlns="http://www.w3.org/2000/svg">
    <path fill-rule="evenodd" clip-rule="evenodd" d="M14.3699 2.08226C14.081 2.0134 13.8047 2.00309 13.5105 2L8.66146 2C8.13436 1.99998 7.67963 1.99997 7.30506 2.03057C6.90969 2.06288 6.51639 2.13427 6.138 2.327C5.57354 2.61462 5.11455 3.07368 4.82693 3.63814C4.6342 4.01652 4.56288 4.40969 4.53057 4.80506C4.49997 5.17963 4.49998 5.63436 4.5 6.16146V17.8385C4.49998 18.3656 4.49997 18.8204 4.53057 19.1949C4.56288 19.5903 4.63427 19.9836 4.827 20.362C5.1145 20.9262 5.57386 21.3854 6.138 21.673C6.51607 21.8659 6.90917 21.9371 7.30385 21.9694C7.67808 22 8.13234 22 8.65843 22H16.3416C16.8676 22 17.3217 22 17.6957 21.9694C18.0903 21.9371 18.4829 21.8658 18.8608 21.6731C19.4259 21.3853 19.8847 20.9265 20.1726 20.3628L20.1731 20.3619C20.3656 19.9838 20.4371 19.5914 20.4694 19.1964C20.5 18.8225 20.5 18.3686 20.5 17.8426L20.5 9.326L20.499 8.99694L20.4989 8.98948C20.4958 8.69525 20.4855 8.42161 20.4194 8.13571L20.4164 8.12368C20.342 7.81891 20.2223 7.53093 20.0591 7.26295L20.0572 7.25985C19.8698 6.95456 19.5583 6.64354 19.27 6.35578C18.0497 5.13584 16.1451 3.23192 16.1451 3.23192L16.1443 3.23113L16.0896 3.17621C15.801 2.88621 15.5473 2.63139 15.2406 2.44302C14.9685 2.27582 14.6754 2.15709 14.3761 2.08373L14.3699 2.08226ZM7.04587 4.10907C6.85782 4.20493 6.70493 4.35782 6.60907 4.54587C6.5838 4.59553 6.5461 4.69656 6.52393 4.96794C6.50078 5.25127 6.5 5.6235 6.5 6.2V17.8C6.5 18.3765 6.50078 18.7487 6.52393 19.0321C6.54612 19.3037 6.5838 19.4045 6.60907 19.4541C6.70495 19.6422 6.8586 19.7955 7.04671 19.8914C7.09542 19.9162 7.19558 19.9539 7.46691 19.9761C7.74981 19.9992 8.12149 20 8.697 20H16.303C16.8785 20 17.2499 19.9992 17.5325 19.9761C17.8034 19.9539 17.9043 19.9158 17.9532 19.8909C18.1419 19.7948 18.2949 19.6419 18.3911 19.4539C18.4165 19.4039 18.454 19.3031 18.4761 19.0331C18.4992 18.7507 18.5 18.3795 18.5 17.804V10L16.6585 10C16.1324 10 15.6781 10 15.3038 9.96942C14.9092 9.93714 14.5158 9.86575 14.1378 9.67289C13.5734 9.38526 13.1145 8.92625 12.8269 8.36187C12.6342 7.98348 12.5629 7.59031 12.5306 7.19494C12.5 6.82037 12.5 6.36564 12.5 5.83854L12.5 4H8.7C8.1235 4 7.75127 4.00078 7.46794 4.02393C7.19656 4.0461 7.09553 4.0838 7.04587 4.10907ZM14.5 4.41644V5.8C14.5 6.3765 14.5008 6.74873 14.5239 7.03206C14.5461 7.30369 14.5838 7.40452 14.6091 7.45414C14.705 7.64223 14.8579 7.79515 15.046 7.891C15.0947 7.91587 15.1956 7.95389 15.4669 7.97608C15.7498 7.99922 16.1215 8 16.697 8H18.084C18.0239 7.93863 17.9493 7.86352 17.856 7.77022L14.73 4.64522L14.7289 4.64408C14.636 4.55099 14.5612 4.47652 14.5 4.41644Z" fill="white"/>
    <path d="M9.5 13C8.94772 13 8.5 13.4477 8.5 14C8.5 14.5523 8.94772 15 9.5 15H15.5C16.0523 15 16.5 14.5523 16.5 14C16.5 13.4477 16.0523 13 15.5 13H9.5Z" fill="white"/>
    <path d="M9.5 16C8.94772 16 8.5 16.4477 8.5 17C8.5 17.5523 8.94772 18 9.5 18H15.5C16.0523 18 16.5 17.5523 16.5 17C16.5 16.4477 16.0523 16 15.5 16H9.5Z" fill="white"/>
</svg>
