<svg width="24" height="24" viewBox="0 0 25 25" fill="none" xmlns="http://www.w3.org/2000/svg">
    <rect width="24.33" height="24.33" rx="12.165" fill="#2BC0CA"/>
    <path d="M14.9389 13.22C14.6899 12.5273 14.3807 11.8604 14.0154 11.228C13.8322 10.8784 13.8239 10.8576 13.7058 10.6448C13.6451 10.5362 13.5752 10.4336 13.4969 10.3384C13.0427 9.71278 12.6135 10.1384 12.8913 10.7328L13.3584 11.6128C13.6882 12.1982 13.9758 12.809 14.219 13.44C14.3702 13.9543 14.4151 14.4969 14.3507 15.0312C14.2996 15.4737 14.1306 15.8918 13.8633 16.2368C13.4987 16.6544 13.0668 17.0003 12.5878 17.2584C11.8309 17.6584 12.3108 18.2448 12.8437 18.0024C13.4571 17.6631 14.0117 17.2165 14.4839 16.6816C14.7841 16.2234 14.9903 15.7041 15.0895 15.1568C15.1715 14.5072 15.1202 13.8466 14.9389 13.22ZM12.2646 5.0336L11.5001 4L10.7356 5.0336C9.6244 6.53599 6.00019 11.6392 6.00019 14.248C5.99423 14.9921 6.13069 15.7298 6.40136 16.4168C6.62847 17.0197 6.95584 17.5749 7.36797 18.056C8.27801 19.1386 9.53964 19.8204 10.9029 19.9663C11.0882 19.9897 11.2748 20.0009 11.4615 19.9999H11.5152C12.297 20.0011 13.0701 19.8269 13.7834 19.4889C14.4968 19.1509 15.1341 18.6568 15.6534 18.0392C16.5215 16.9918 17 15.6468 17 14.2544C17 11.6392 13.3758 6.53599 12.2646 5.0336ZM14.9222 17.36C14.4941 17.8672 13.9693 18.273 13.3822 18.5505C12.7951 18.8281 12.1591 18.9712 11.516 18.9703C11.3478 18.9734 11.1797 18.9646 11.0126 18.9439C9.88824 18.8249 8.84688 18.2648 8.09388 17.3744C7.75647 16.9827 7.48876 16.5298 7.30363 16.0376C7.08104 15.4727 6.96829 14.8663 6.97209 14.2544C6.97134 12.22 9.94534 7.76799 11.5001 5.66559C13.0556 7.76799 16.0296 12.22 16.0296 14.2544C16.0284 15.3971 15.6349 16.5006 14.9222 17.36Z" fill="white"/>
</svg>

