<svg width="25" height="24" viewBox="0 0 25 24" fill="none" xmlns="http://www.w3.org/2000/svg">
    <path d="M15.5 2.625C14.5216 2.62502 13.5564 2.85023 12.6791 3.28318C11.8017 3.71613 11.0358 4.3452 10.4406 5.12169C9.84539 5.89817 9.43689 6.80123 9.24673 7.76093C9.05658 8.72063 9.08986 9.71123 9.344 10.656L3.125 16.875V21.375H7.625V19.125H9.875V16.875H12.125L13.85 15.15C14.39 15.297 14.94 15.372 15.5 15.375C17.1908 15.375 18.8123 14.7034 20.0078 13.5078C21.2034 12.3123 21.875 10.6908 21.875 9C21.875 7.30924 21.2034 5.68774 20.0078 4.49219C18.8123 3.29665 17.1908 2.625 15.5 2.625Z" stroke="white" stroke-width="1.5" stroke-linecap="round" stroke-linejoin="round"/>
    <path d="M16.625 8.625C17.0392 8.625 17.375 8.28921 17.375 7.875C17.375 7.46079 17.0392 7.125 16.625 7.125C16.2108 7.125 15.875 7.46079 15.875 7.875C15.875 8.28921 16.2108 8.625 16.625 8.625Z" fill="white" stroke="white" stroke-width="1.5" stroke-linecap="round" stroke-linejoin="round"/>
</svg>
