<svg width="14" height="14" viewBox="0 0 14 14" fill="none" xmlns="http://www.w3.org/2000/svg">
    <path d="M11.0833 6.41602H2.91667C2.27233 6.41602 1.75 6.93835 1.75 7.58268V11.666C1.75 12.3103 2.27233 12.8327 2.91667 12.8327H11.0833C11.7277 12.8327 12.25 12.3103 12.25 11.666V7.58268C12.25 6.93835 11.7277 6.41602 11.0833 6.41602Z" stroke="#3A3F48" stroke-width="1.16667" stroke-linecap="round" stroke-linejoin="round"/>
    <path d="M4.08325 6.417V4.08367C4.08253 3.36036 4.35058 2.66259 4.83539 2.12581C5.32019 1.58902 5.98715 1.25153 6.7068 1.17884C7.42644 1.10614 8.14742 1.30344 8.72978 1.73243C8.91377 1.86797 9.07978 2.02358 9.22534 2.1954C9.85534 2.93908 9.85825 3.99134 9.85825 4.96599V6.417" stroke="#3A3F48" stroke-width="1.16667" stroke-linecap="round" stroke-linejoin="round"/>
</svg>
