<svg width="24" height="24" viewBox="0 0 17 16" fill="none" xmlns="http://www.w3.org/2000/svg">
    <g clip-path="url(#clip0_1052_6608)">
        <path d="M14.5811 6.66211C14.5811 11.3288 8.58105 15.3288 8.58105 15.3288C8.58105 15.3288 2.58105 11.3288 2.58105 6.66211C2.58105 5.07081 3.2132 3.54469 4.33841 2.41947C5.46363 1.29425 6.98976 0.662109 8.58105 0.662109C10.1724 0.662109 11.6985 1.29425 12.8237 2.41947C13.9489 3.54469 14.5811 5.07081 14.5811 6.66211Z" stroke="#FF4D4F" stroke-width="1.6" stroke-linecap="round" stroke-linejoin="round"/>
        <path d="M8.58105 8.66211C9.68562 8.66211 10.5811 7.76668 10.5811 6.66211C10.5811 5.55754 9.68562 4.66211 8.58105 4.66211C7.47649 4.66211 6.58105 5.55754 6.58105 6.66211C6.58105 7.76668 7.47649 8.66211 8.58105 8.66211Z" stroke="#FF4D4F" stroke-width="1.6" stroke-linecap="round" stroke-linejoin="round"/>
    </g>
    <defs>
        <clipPath id="clip0_1052_6608">
            <rect width="16" height="16" fill="white" transform="translate(0.581055 -0.00390625)"/>
        </clipPath>
    </defs>
</svg>
