<svg width="439" height="655" viewBox="0 0 439 655" fill="none" xmlns="http://www.w3.org/2000/svg">
    <path d="M23.5229 1H166.055H285.421H418.433V548H266.608H241.258H204.319H179.694H23.5229V1Z" fill="white" stroke="#7E9EB3" stroke-width="2"/>
    <path d="M23 566H419V654H23V566Z" fill="white" stroke="#7E9EB3" stroke-width="2"/>
    <path d="M48.597 122.449H80.4657V152.869H48.597V122.449Z" fill="#D9D9D9"/>
    <path fill-rule="evenodd" clip-rule="evenodd" d="M47.1484 121H81.9143V154.317H47.1484V121ZM50.0456 123.897V151.42H63.0828V123.897H50.0456ZM65.9799 123.897V151.42H79.0171V123.897H65.9799Z" fill="#AEBAC1"/>
    <path d="M48.5974 177.496H80.4661V207.916H48.5974V177.496Z" fill="#D9D9D9"/>
    <path fill-rule="evenodd" clip-rule="evenodd" d="M47.1489 176.047H81.9148V209.364H47.1489V176.047ZM50.0461 178.944V206.467H63.0833V178.944H50.0461ZM65.9804 178.944V206.467H79.0176V178.944H65.9804Z" fill="#AEBAC1"/>
    <path d="M48.597 232.543H80.4657V262.963H48.597V232.543Z" fill="#D9D9D9"/>
    <path fill-rule="evenodd" clip-rule="evenodd" d="M47.1484 231.094H81.9143V264.411H47.1484V231.094ZM50.0456 233.991V261.514H63.0828V233.991H50.0456ZM65.9799 233.991V261.514H79.0171V233.991H65.9799Z" fill="#AEBAC1"/>
    <path d="M48.597 287.586H80.4657V318.006H48.597V287.586Z" fill="#D9D9D9"/>
    <path fill-rule="evenodd" clip-rule="evenodd" d="M47.1484 286.137H81.9143V319.454H47.1484V286.137ZM50.0456 289.034V316.557H63.0828V289.034H50.0456ZM65.9799 289.034V316.557H79.0171V289.034H65.9799Z" fill="#AEBAC1"/>
    <path d="M48.5974 342.633H80.4661V373.053H48.5974V342.633Z" fill="#D9D9D9"/>
    <path fill-rule="evenodd" clip-rule="evenodd" d="M47.1489 341.184H81.9148V374.501H47.1489V341.184ZM50.0461 344.081V371.604H63.0833V344.081H50.0461ZM65.9804 344.081V371.604H79.0176V344.081H65.9804Z" fill="#AEBAC1"/>
    <path d="M361.49 122.449H393.358V152.869H361.49V122.449Z" fill="#D9D9D9"/>
    <path fill-rule="evenodd" clip-rule="evenodd" d="M360.041 121H394.807V154.317H360.041V121ZM362.938 123.897V151.42H375.975V123.897H362.938ZM378.873 123.897V151.42H391.91V123.897H378.873Z" fill="#AEBAC1"/>
    <path d="M361.49 177.496H393.358V207.916H361.49V177.496Z" fill="#D9D9D9"/>
    <path fill-rule="evenodd" clip-rule="evenodd" d="M360.041 176.047H394.807V209.364H360.041V176.047ZM362.938 178.944V206.467H375.975V178.944H362.938ZM378.873 178.944V206.467H391.91V178.944H378.873Z" fill="#AEBAC1"/>
    <path d="M361.49 232.543H393.358V262.963H361.49V232.543Z" fill="#D9D9D9"/>
    <path fill-rule="evenodd" clip-rule="evenodd" d="M360.041 231.094H394.807V264.411H360.041V231.094ZM362.938 233.991V261.514H375.975V233.991H362.938ZM378.873 233.991V261.514H391.91V233.991H378.873Z" fill="#AEBAC1"/>
    <path d="M361.49 287.586H393.358V318.006H361.49V287.586Z" fill="#D9D9D9"/>
    <path fill-rule="evenodd" clip-rule="evenodd" d="M360.041 286.137H394.807V319.454H360.041V286.137ZM362.938 289.034V316.557H375.975V289.034H362.938ZM378.873 289.034V316.557H391.91V289.034H378.873Z" fill="#AEBAC1"/>
    <path d="M361.49 342.633H393.358V373.053H361.49V342.633Z" fill="#D9D9D9"/>
    <path fill-rule="evenodd" clip-rule="evenodd" d="M360.041 341.184H394.807V374.501H360.041V341.184ZM362.938 344.081V371.604H375.975V344.081H362.938ZM378.873 344.081V371.604H391.91V344.081H378.873Z" fill="#AEBAC1"/>
    <rect x="184.764" y="151.422" width="18.8315" height="17.3829" fill="#D9D9D9"/>
    <path fill-rule="evenodd" clip-rule="evenodd" d="M183.315 149.973H205.044V170.253H183.315V149.973ZM186.212 152.87V167.356H202.146V152.87H186.212Z" fill="#AEBAC1"/>
    <rect x="184.764" y="261.514" width="18.8315" height="17.3829" fill="#D9D9D9"/>
    <path fill-rule="evenodd" clip-rule="evenodd" d="M183.315 260.064H205.044V280.345H183.315V260.064ZM186.212 262.962V277.447H202.146V262.962H186.212Z" fill="#AEBAC1"/>
    <rect x="184.764" y="371.605" width="18.8315" height="17.3829" fill="#D9D9D9"/>
    <path fill-rule="evenodd" clip-rule="evenodd" d="M183.315 370.156H205.044V390.436H183.315V370.156ZM186.212 373.053V387.539H202.146V373.053H186.212Z" fill="#AEBAC1"/>
    <rect x="184.764" y="206.467" width="18.8315" height="17.3829" fill="#D9D9D9"/>
    <path fill-rule="evenodd" clip-rule="evenodd" d="M183.315 205.018H205.044V225.298H183.315V205.018ZM186.212 207.915V222.401H202.146V207.915H186.212Z" fill="#AEBAC1"/>
    <rect x="184.764" y="316.559" width="18.8315" height="17.3829" fill="#D9D9D9"/>
    <path fill-rule="evenodd" clip-rule="evenodd" d="M183.315 315.109H205.044V335.389H183.315V315.109ZM186.212 318.007V332.492H202.146V318.007H186.212Z" fill="#AEBAC1"/>
    <rect x="241.258" y="206.467" width="18.8315" height="17.3829" fill="#D9D9D9"/>
    <path fill-rule="evenodd" clip-rule="evenodd" d="M239.809 205.018H261.538V225.298H239.809V205.018ZM242.707 207.915V222.401H258.641V207.915H242.707Z" fill="#AEBAC1"/>
    <rect x="241.258" y="316.559" width="18.8315" height="17.3829" fill="#D9D9D9"/>
    <path fill-rule="evenodd" clip-rule="evenodd" d="M239.809 315.109H261.538V335.389H239.809V315.109ZM242.707 318.007V332.492H258.641V318.007H242.707Z" fill="#AEBAC1"/>
    <rect x="241.258" y="151.422" width="18.8315" height="17.3829" fill="#D9D9D9"/>
    <path fill-rule="evenodd" clip-rule="evenodd" d="M239.809 149.973H261.538V170.253H239.809V149.973ZM242.707 152.87V167.356H258.641V152.87H242.707Z" fill="#AEBAC1"/>
    <rect x="241.258" y="261.514" width="18.8315" height="17.3829" fill="#D9D9D9"/>
    <path fill-rule="evenodd" clip-rule="evenodd" d="M239.809 260.064H261.538V280.345H239.809V260.064ZM242.707 262.962V277.447H258.641V262.962H242.707Z" fill="#AEBAC1"/>
    <rect x="241.258" y="371.605" width="18.8315" height="17.3829" fill="#D9D9D9"/>
    <path fill-rule="evenodd" clip-rule="evenodd" d="M239.809 370.156H261.538V390.436H239.809V370.156ZM242.707 373.053V387.539H258.641V373.053H242.707Z" fill="#AEBAC1"/>
    <rect x="105.092" y="123.896" width="46.3545" height="47.803" fill="#D9D9D9"/>
    <path fill-rule="evenodd" clip-rule="evenodd" d="M103.644 122.447H152.895V173.147H103.644V122.447ZM106.541 125.344V170.25H118.129V125.344H106.541ZM121.026 125.344V170.25H135.512V125.344H121.026ZM138.409 125.344V170.25H149.998V125.344H138.409Z" fill="#AEBAC1"/>
    <rect x="94.9521" y="148.523" width="65.186" height="24.6258" fill="#AEBAC1"/>
    <rect x="293.407" y="123.896" width="46.3545" height="47.803" fill="#D9D9D9"/>
    <path fill-rule="evenodd" clip-rule="evenodd" d="M291.958 122.447H341.21V173.147H291.958V122.447ZM294.855 125.344V170.25H306.444V125.344H294.855ZM309.341 125.344V170.25H323.827V125.344H309.341ZM326.724 125.344V170.25H338.313V125.344H326.724Z" fill="#AEBAC1"/>
    <rect x="283.267" y="148.523" width="65.186" height="24.6258" fill="#AEBAC1"/>
    <rect x="105.092" y="180.395" width="46.3545" height="47.803" fill="#D9D9D9"/>
    <path fill-rule="evenodd" clip-rule="evenodd" d="M103.644 178.945H152.895V229.646H103.644V178.945ZM106.541 181.842V226.748H118.129V181.842H106.541ZM121.026 181.842V226.748H135.512V181.842H121.026ZM138.409 181.842V226.748H149.998V181.842H138.409Z" fill="#AEBAC1"/>
    <rect x="94.9521" y="205.018" width="65.186" height="24.6258" fill="#AEBAC1"/>
    <rect x="293.407" y="180.395" width="46.3545" height="47.803" fill="#D9D9D9"/>
    <path fill-rule="evenodd" clip-rule="evenodd" d="M291.958 178.945H341.21V229.646H291.958V178.945ZM294.855 181.842V226.748H306.444V181.842H294.855ZM309.341 181.842V226.748H323.827V181.842H309.341ZM326.724 181.842V226.748H338.313V181.842H326.724Z" fill="#AEBAC1"/>
    <rect x="283.267" y="205.018" width="65.186" height="24.6258" fill="#AEBAC1"/>
    <rect x="105.092" y="236.887" width="46.3545" height="47.803" fill="#D9D9D9"/>
    <path fill-rule="evenodd" clip-rule="evenodd" d="M103.644 235.438H152.895V286.138H103.644V235.438ZM106.541 238.335V283.241H118.129V238.335H106.541ZM121.026 238.335V283.241H135.512V238.335H121.026ZM138.409 238.335V283.241H149.998V238.335H138.409Z" fill="#AEBAC1"/>
    <rect x="94.9521" y="261.514" width="65.186" height="24.6258" fill="#AEBAC1"/>
    <rect x="293.407" y="236.887" width="46.3545" height="47.803" fill="#D9D9D9"/>
    <path fill-rule="evenodd" clip-rule="evenodd" d="M291.958 235.438H341.21V286.138H291.958V235.438ZM294.855 238.335V283.241H306.444V238.335H294.855ZM309.341 238.335V283.241H323.827V238.335H309.341ZM326.724 238.335V283.241H338.313V238.335H326.724Z" fill="#AEBAC1"/>
    <rect x="283.267" y="261.514" width="65.186" height="24.6258" fill="#AEBAC1"/>
    <rect x="105.092" y="293.381" width="46.3545" height="47.803" fill="#D9D9D9"/>
    <path fill-rule="evenodd" clip-rule="evenodd" d="M103.644 291.932H152.895V342.632H103.644V291.932ZM106.541 294.829V339.735H118.129V294.829H106.541ZM121.026 294.829V339.735H135.512V294.829H121.026ZM138.409 294.829V339.735H149.998V294.829H138.409Z" fill="#AEBAC1"/>
    <rect x="94.9521" y="318.006" width="65.186" height="24.6258" fill="#AEBAC1"/>
    <rect x="293.407" y="293.381" width="46.3545" height="47.803" fill="#D9D9D9"/>
    <path fill-rule="evenodd" clip-rule="evenodd" d="M291.958 291.932H341.21V342.632H291.958V291.932ZM294.855 294.829V339.735H306.444V294.829H294.855ZM309.341 294.829V339.735H323.827V294.829H309.341ZM326.724 294.829V339.735H338.313V294.829H326.724Z" fill="#AEBAC1"/>
    <rect x="283.267" y="318.006" width="65.186" height="24.6258" fill="#AEBAC1"/>
    <rect x="105.092" y="349.877" width="46.3545" height="47.803" fill="#D9D9D9"/>
    <path fill-rule="evenodd" clip-rule="evenodd" d="M103.644 348.428H152.895V399.128H103.644V348.428ZM106.541 351.325V396.231H118.129V351.325H106.541ZM121.026 351.325V396.231H135.512V351.325H121.026ZM138.409 351.325V396.231H149.998V351.325H138.409Z" fill="#AEBAC1"/>
    <rect x="94.9521" y="374.502" width="65.186" height="24.6258" fill="#AEBAC1"/>
    <rect x="293.407" y="349.877" width="46.3545" height="47.803" fill="#D9D9D9"/>
    <path fill-rule="evenodd" clip-rule="evenodd" d="M291.958 348.428H341.21V399.128H291.958V348.428ZM294.855 351.325V396.231H306.444V351.325H294.855ZM309.341 351.325V396.231H323.827V351.325H309.341ZM326.724 351.325V396.231H338.313V351.325H326.724Z" fill="#AEBAC1"/>
    <rect x="283.267" y="374.502" width="65.186" height="24.6258" fill="#AEBAC1"/>
    <rect y="549" width="439" height="26" fill="#C8D0D6"/>
    <path d="M60.4574 435.491V436.585H56.2614V435.491H60.4574ZM53.8352 437.818H55.108C55.2173 438.534 55.4593 439.084 55.8338 439.469C56.2083 439.853 56.8082 440.045 57.6335 440.045C58.2169 440.045 58.7041 439.881 59.0952 439.553C59.4896 439.225 59.7846 438.791 59.9801 438.251C60.179 437.71 60.2784 437.122 60.2784 436.486V435.352C60.2784 434.65 60.1674 434.031 59.9453 433.498C59.7266 432.961 59.41 432.543 58.9957 432.245C58.5848 431.943 58.0909 431.793 57.5142 431.793C57.0104 431.793 56.5928 431.882 56.2614 432.061C55.9299 432.24 55.6714 432.497 55.4858 432.832C55.3002 433.166 55.1742 433.569 55.108 434.04H53.8352C53.9015 433.39 54.0788 432.813 54.3672 432.31C54.6589 431.803 55.0649 431.405 55.5852 431.116C56.1089 430.825 56.7519 430.679 57.5142 430.679C58.3428 430.679 59.0587 430.873 59.6619 431.261C60.2652 431.645 60.7308 432.187 61.0589 432.886C61.3871 433.582 61.5511 434.398 61.5511 435.332V436.506C61.5511 437.44 61.3887 438.256 61.0639 438.952C60.7391 439.644 60.2834 440.183 59.6967 440.567C59.1101 440.949 58.4223 441.139 57.6335 441.139C56.8248 441.139 56.152 440.993 55.6151 440.702C55.0814 440.407 54.6688 440.009 54.3771 439.509C54.0888 439.005 53.9081 438.441 53.8352 437.818ZM63.0289 434.457V433.364H69.2335V434.457H66.7278V441H65.5545V434.457H63.0289ZM72.7956 441.179C72.3117 441.179 71.8726 441.088 71.4782 440.906C71.0837 440.72 70.7705 440.453 70.5385 440.105C70.3065 439.754 70.1905 439.33 70.1905 438.832C70.1905 438.395 70.2767 438.04 70.449 437.768C70.6214 437.493 70.8517 437.278 71.1401 437.122C71.4284 436.966 71.7466 436.85 72.0946 436.774C72.446 436.695 72.7989 436.632 73.1536 436.585C73.6176 436.526 73.9938 436.481 74.2821 436.451C74.5738 436.418 74.7859 436.363 74.9185 436.287C75.0544 436.211 75.1223 436.078 75.1223 435.889V435.849C75.1223 435.359 74.9881 434.978 74.7196 434.706C74.4545 434.434 74.0518 434.298 73.5115 434.298C72.9514 434.298 72.5123 434.421 72.1941 434.666C71.8759 434.911 71.6522 435.173 71.5229 435.452L70.4093 435.054C70.6081 434.59 70.8733 434.229 71.2047 433.97C71.5395 433.708 71.9041 433.526 72.2985 433.423C72.6962 433.317 73.0873 433.264 73.4718 433.264C73.717 433.264 73.9988 433.294 74.3169 433.354C74.6384 433.41 74.9483 433.528 75.2466 433.707C75.5482 433.886 75.7985 434.156 75.9973 434.517C76.1962 434.878 76.2956 435.362 76.2956 435.969V441H75.1223V439.966H75.0627C74.9831 440.132 74.8506 440.309 74.665 440.498C74.4793 440.687 74.2324 440.848 73.9242 440.98C73.6159 441.113 73.2398 441.179 72.7956 441.179ZM72.9746 440.125C73.4386 440.125 73.8297 440.034 74.1479 439.852C74.4694 439.669 74.7114 439.434 74.8738 439.146C75.0395 438.857 75.1223 438.554 75.1223 438.236V437.162C75.0726 437.222 74.9632 437.276 74.7942 437.326C74.6285 437.372 74.4363 437.414 74.2175 437.45C74.0021 437.483 73.7916 437.513 73.5861 437.54C73.3839 437.563 73.2199 437.583 73.0939 437.599C72.789 437.639 72.504 437.704 72.2388 437.793C71.977 437.879 71.7649 438.01 71.6025 438.186C71.4434 438.358 71.3638 438.594 71.3638 438.892C71.3638 439.3 71.5146 439.608 71.8162 439.817C72.1212 440.022 72.5073 440.125 72.9746 440.125ZM77.9599 441L81.0621 437.122L77.9996 433.364H79.3917L81.9371 436.625H82.5735V433.364H83.7468V436.625H84.3633L86.9087 433.364H88.3008L85.2582 437.122L88.3406 441H86.9286L84.3434 437.719H83.7468V441H82.5735V437.719H81.9769L79.3718 441H77.9599ZM97.5144 430.818V441H96.2814V432.111H96.2218L93.736 433.761V432.509L96.2814 430.818H97.5144Z" fill="#3A3F48"/>
    <path d="M54.3324 26.8182H55.5653V30.2188C55.5653 30.7225 55.6532 31.1186 55.8288 31.407C56.0045 31.692 56.2531 31.8942 56.5746 32.0135C56.8961 32.1295 57.2756 32.1875 57.7131 32.1875C57.9882 32.1875 58.255 32.1776 58.5135 32.1577C58.772 32.1345 59.0239 32.103 59.2692 32.0632C59.5178 32.0234 59.7597 31.9754 59.995 31.919C60.2337 31.8627 60.4673 31.7997 60.696 31.7301V32.8438C60.474 32.9134 60.2536 32.9763 60.0348 33.0327C59.8194 33.089 59.594 33.1371 59.3587 33.1768C59.1267 33.2166 58.8764 33.2481 58.608 33.2713C58.3395 33.2912 58.0412 33.3011 57.7131 33.3011C57.0104 33.3011 56.4055 33.2 55.8984 32.9979C55.3946 32.7957 55.0069 32.4692 54.7351 32.0185C54.4666 31.5677 54.3324 30.9678 54.3324 30.2188V26.8182ZM60.5369 26.8182H61.7699V37H60.5369V26.8182ZM67.2834 37.1591C66.5476 37.1591 65.9129 36.9967 65.3793 36.6719C64.849 36.3438 64.4396 35.8864 64.1513 35.2997C63.8662 34.7098 63.7237 34.0237 63.7237 33.2415C63.7237 32.4593 63.8662 31.7699 64.1513 31.1733C64.4396 30.5734 64.8407 30.1061 65.3544 29.7713C65.8714 29.4332 66.4747 29.2642 67.1641 29.2642C67.5618 29.2642 67.9545 29.3305 68.3423 29.4631C68.7301 29.5956 69.0831 29.8111 69.4013 30.1094C69.7195 30.4044 69.973 30.7955 70.1619 31.2827C70.3509 31.7699 70.4453 32.3698 70.4453 33.0824V33.5795H64.5589V32.5653H69.2521C69.2521 32.1345 69.166 31.75 68.9936 31.4119C68.8246 31.0739 68.5826 30.8071 68.2678 30.6115C67.9562 30.416 67.5883 30.3182 67.1641 30.3182C66.6967 30.3182 66.2924 30.4342 65.951 30.6662C65.6129 30.8949 65.3527 31.1932 65.1705 31.5611C64.9882 31.929 64.897 32.3234 64.897 32.7443V33.4205C64.897 33.9972 64.9964 34.486 65.1953 34.8871C65.3975 35.2848 65.6776 35.5881 66.0355 35.7969C66.3935 36.0024 66.8094 36.1051 67.2834 36.1051C67.5916 36.1051 67.87 36.062 68.1186 35.9759C68.3705 35.8864 68.5876 35.7538 68.7699 35.5781C68.9522 35.3991 69.093 35.1771 69.1925 34.9119L70.326 35.2301C70.2067 35.6146 70.0062 35.9527 69.7244 36.2443C69.4427 36.5327 69.0947 36.758 68.6804 36.9205C68.2661 37.0795 67.8004 37.1591 67.2834 37.1591ZM72.2301 39.8636V29.3636H73.3636V30.5767H73.5028C73.589 30.4441 73.7083 30.2751 73.8608 30.0696C74.0166 29.8608 74.2386 29.6752 74.527 29.5128C74.8187 29.3471 75.2131 29.2642 75.7102 29.2642C76.3532 29.2642 76.92 29.425 77.4105 29.7464C77.901 30.0679 78.2839 30.5237 78.5589 31.1136C78.834 31.7036 78.9716 32.3996 78.9716 33.2017C78.9716 34.0104 78.834 34.7114 78.5589 35.3047C78.2839 35.8946 77.9027 36.352 77.4155 36.6768C76.9283 36.9983 76.3665 37.1591 75.7301 37.1591C75.2396 37.1591 74.8468 37.0779 74.5518 36.9155C74.2569 36.7498 74.0298 36.5625 73.8707 36.3537C73.7116 36.1416 73.589 35.9659 73.5028 35.8267H73.4034V39.8636H72.2301ZM73.3835 33.1818C73.3835 33.7585 73.468 34.2673 73.6371 34.7081C73.8061 35.1456 74.053 35.4886 74.3778 35.7372C74.7027 35.9825 75.1004 36.1051 75.571 36.1051C76.0616 36.1051 76.4709 35.9759 76.799 35.7173C77.1304 35.4555 77.379 35.1042 77.5447 34.6634C77.7138 34.2192 77.7983 33.7254 77.7983 33.1818C77.7983 32.6449 77.7154 32.161 77.5497 31.7301C77.3873 31.2959 77.1404 30.9529 76.8089 30.701C76.4808 30.4458 76.0682 30.3182 75.571 30.3182C75.0938 30.3182 74.6927 30.4392 74.3679 30.6811C74.0431 30.9197 73.7978 31.2545 73.6321 31.6854C73.4664 32.1129 73.3835 32.6117 73.3835 33.1818ZM79.946 39.1875V35.9062H80.5824C80.7382 35.7438 80.8724 35.5682 80.9851 35.3793C81.0978 35.1903 81.1955 34.9666 81.2784 34.7081C81.3646 34.4463 81.4375 34.1281 81.4972 33.7536C81.5568 33.3757 81.6098 32.92 81.6562 32.3864L81.9148 29.3636H86.767V35.9062H87.9403V39.1875H86.767V37H81.1193V39.1875H79.946ZM81.9148 35.9062H85.5938V30.4574H83.0085L82.8097 32.3864C82.7268 33.1851 82.6241 33.8828 82.5014 34.4794C82.3788 35.076 82.1832 35.5516 81.9148 35.9062ZM91.7449 37.179C91.2609 37.179 90.8218 37.0878 90.4274 36.9055C90.033 36.7199 89.7198 36.4531 89.4877 36.1051C89.2557 35.7538 89.1397 35.3295 89.1397 34.8324C89.1397 34.3949 89.2259 34.0402 89.3983 33.7685C89.5706 33.4934 89.801 33.2779 90.0893 33.1222C90.3777 32.9664 90.6958 32.8504 91.0439 32.7741C91.3952 32.6946 91.7482 32.6316 92.1028 32.5852C92.5668 32.5256 92.943 32.4808 93.2314 32.451C93.523 32.4179 93.7351 32.3632 93.8677 32.2869C94.0036 32.2107 94.0716 32.0781 94.0716 31.8892V31.8494C94.0716 31.3589 93.9373 30.9777 93.6689 30.706C93.4037 30.4342 93.001 30.2983 92.4608 30.2983C91.9006 30.2983 91.4615 30.4209 91.1433 30.6662C90.8251 30.9115 90.6014 31.1733 90.4721 31.4517L89.3585 31.054C89.5574 30.59 89.8225 30.2287 90.1539 29.9702C90.4887 29.7083 90.8533 29.526 91.2477 29.4233C91.6454 29.3172 92.0365 29.2642 92.421 29.2642C92.6663 29.2642 92.948 29.294 93.2662 29.3537C93.5877 29.41 93.8975 29.5277 94.1958 29.7067C94.4975 29.8857 94.7477 30.1558 94.9466 30.517C95.1454 30.8783 95.2449 31.3622 95.2449 31.9688V37H94.0716V35.9659H94.0119C93.9324 36.1316 93.7998 36.3089 93.6142 36.4979C93.4286 36.6868 93.1816 36.8475 92.8734 36.9801C92.5652 37.1127 92.189 37.179 91.7449 37.179ZM91.9238 36.125C92.3878 36.125 92.7789 36.0339 93.0971 35.8516C93.4186 35.6693 93.6606 35.4339 93.823 35.1456C93.9887 34.8572 94.0716 34.554 94.0716 34.2358V33.1619C94.0218 33.2216 93.9125 33.2763 93.7434 33.326C93.5777 33.3724 93.3855 33.4138 93.1667 33.4503C92.9513 33.4834 92.7408 33.5133 92.5353 33.5398C92.3332 33.563 92.1691 33.5829 92.0431 33.5994C91.7382 33.6392 91.4532 33.7038 91.188 33.7933C90.9262 33.8795 90.7141 34.0104 90.5517 34.1861C90.3926 34.3584 90.313 34.5937 90.313 34.892C90.313 35.2997 90.4638 35.608 90.7654 35.8168C91.0704 36.0223 91.4565 36.125 91.9238 36.125ZM97.3864 37V29.3636H98.5597V32.6847H99.3352L102.08 29.3636H103.591L100.509 33.0426L103.631 37H102.119L99.6136 33.7784H98.5597V37H97.3864Z" fill="#3A3F48"/>
    <path d="M60.8494 603.818V614H59.6165V604.912H54.4858V614H53.2528V603.818H60.8494ZM66.2797 614.159C65.5903 614.159 64.9854 613.995 64.465 613.667C63.948 613.339 63.5436 612.88 63.252 612.29C62.9636 611.7 62.8194 611.01 62.8194 610.222C62.8194 609.426 62.9636 608.732 63.252 608.138C63.5436 607.545 63.948 607.085 64.465 606.756C64.9854 606.428 65.5903 606.264 66.2797 606.264C66.969 606.264 67.5723 606.428 68.0893 606.756C68.6097 607.085 69.014 607.545 69.3024 608.138C69.594 608.732 69.7399 609.426 69.7399 610.222C69.7399 611.01 69.594 611.7 69.3024 612.29C69.014 612.88 68.6097 613.339 68.0893 613.667C67.5723 613.995 66.969 614.159 66.2797 614.159ZM66.2797 613.105C66.8033 613.105 67.2342 612.971 67.5723 612.702C67.9103 612.434 68.1606 612.081 68.323 611.643C68.4854 611.206 68.5666 610.732 68.5666 610.222C68.5666 609.711 68.4854 609.236 68.323 608.795C68.1606 608.354 67.9103 607.998 67.5723 607.726C67.2342 607.454 66.8033 607.318 66.2797 607.318C65.756 607.318 65.3251 607.454 64.987 607.726C64.649 607.998 64.3987 608.354 64.2363 608.795C64.0739 609.236 63.9927 609.711 63.9927 610.222C63.9927 610.732 64.0739 611.206 64.2363 611.643C64.3987 612.081 64.649 612.434 64.987 612.702C65.3251 612.971 65.756 613.105 66.2797 613.105ZM70.7156 616.188V612.906H71.3519C71.5077 612.744 71.6419 612.568 71.7546 612.379C71.8673 612.19 71.9651 611.967 72.0479 611.708C72.1341 611.446 72.207 611.128 72.2667 610.754C72.3263 610.376 72.3794 609.92 72.4258 609.386L72.6843 606.364H77.5366V612.906H78.7099V616.188H77.5366V614H71.8888V616.188H70.7156ZM72.6843 612.906H76.3633V607.457H73.7781L73.5792 609.386C73.4963 610.185 73.3936 610.883 73.271 611.479C73.1483 612.076 72.9528 612.552 72.6843 612.906ZM80.2672 614V606.364H83.3894C84.2114 606.364 84.8643 606.549 85.3482 606.92C85.8321 607.292 86.074 607.782 86.074 608.392C86.074 608.856 85.9365 609.216 85.6614 609.471C85.3863 609.723 85.0333 609.893 84.6025 609.983C84.8842 610.023 85.1576 610.122 85.4228 610.281C85.6912 610.44 85.9133 610.659 86.089 610.938C86.2646 611.213 86.3525 611.551 86.3525 611.952C86.3525 612.343 86.253 612.692 86.0542 613.001C85.8553 613.309 85.5703 613.553 85.199 613.732C84.8278 613.911 84.3837 614 83.8667 614H80.2672ZM81.3809 612.926H83.8667C84.271 612.926 84.5875 612.83 84.8162 612.638C85.0449 612.446 85.1593 612.184 85.1593 611.852C85.1593 611.458 85.0449 611.148 84.8162 610.923C84.5875 610.694 84.271 610.58 83.8667 610.58H81.3809V612.926ZM81.3809 609.565H83.3894C83.7042 609.565 83.9744 609.522 84.1998 609.436C84.4251 609.347 84.5975 609.221 84.7168 609.058C84.8394 608.893 84.9007 608.697 84.9007 608.472C84.9007 608.15 84.7665 607.898 84.498 607.716C84.2296 607.53 83.86 607.438 83.3894 607.438H81.3809V609.565ZM90.3757 614.179C89.8918 614.179 89.4527 614.088 89.0582 613.906C88.6638 613.72 88.3506 613.453 88.1186 613.105C87.8866 612.754 87.7706 612.33 87.7706 611.832C87.7706 611.395 87.8568 611.04 88.0291 610.768C88.2015 610.493 88.4318 610.278 88.7202 610.122C89.0085 609.966 89.3267 609.85 89.6747 609.774C90.026 609.695 90.379 609.632 90.7337 609.585C91.1977 609.526 91.5739 609.481 91.8622 609.451C92.1539 609.418 92.366 609.363 92.4986 609.287C92.6345 609.211 92.7024 609.078 92.7024 608.889V608.849C92.7024 608.359 92.5682 607.978 92.2997 607.706C92.0346 607.434 91.6319 607.298 91.0916 607.298C90.5315 607.298 90.0923 607.421 89.7741 607.666C89.456 607.911 89.2322 608.173 89.103 608.452L87.9893 608.054C88.1882 607.59 88.4534 607.229 88.7848 606.97C89.1196 606.708 89.4841 606.526 89.8786 606.423C90.2763 606.317 90.6674 606.264 91.0518 606.264C91.2971 606.264 91.5788 606.294 91.897 606.354C92.2185 606.41 92.5284 606.528 92.8267 606.707C93.1283 606.886 93.3786 607.156 93.5774 607.517C93.7763 607.878 93.8757 608.362 93.8757 608.969V614H92.7024V612.966H92.6428C92.5632 613.132 92.4306 613.309 92.245 613.498C92.0594 613.687 91.8125 613.848 91.5043 613.98C91.196 614.113 90.8198 614.179 90.3757 614.179ZM90.5547 613.125C91.0187 613.125 91.4098 613.034 91.728 612.852C92.0495 612.669 92.2914 612.434 92.4538 612.146C92.6196 611.857 92.7024 611.554 92.7024 611.236V610.162C92.6527 610.222 92.5433 610.276 92.3743 610.326C92.2086 610.372 92.0163 610.414 91.7976 610.45C91.5821 610.483 91.3717 610.513 91.1662 610.54C90.964 610.563 90.8 610.583 90.674 610.599C90.3691 610.639 90.084 610.704 89.8189 610.793C89.5571 610.879 89.3449 611.01 89.1825 611.186C89.0234 611.358 88.9439 611.594 88.9439 611.892C88.9439 612.3 89.0947 612.608 89.3963 612.817C89.7012 613.022 90.0874 613.125 90.5547 613.125ZM95.3411 614V612.906H95.6195C95.8482 612.906 96.0388 612.862 96.1912 612.772C96.3437 612.679 96.4663 612.518 96.5591 612.29C96.6552 612.058 96.7282 611.736 96.7779 611.325C96.8309 610.911 96.869 610.384 96.8922 609.744L97.0314 606.364H102.122V614H100.949V607.457H98.1451L98.0257 610.182C97.9992 610.808 97.9429 611.36 97.8567 611.837C97.7739 612.311 97.6462 612.709 97.4739 613.031C97.3049 613.352 97.0795 613.594 96.7978 613.756C96.516 613.919 96.1631 614 95.7388 614H95.3411Z" fill="#3A3F48"/>
</svg>

