<svg width="24" height="24" viewBox="0 0 24 24" fill="none" xmlns="http://www.w3.org/2000/svg">
    <rect width="24" height="24" rx="12" fill="#2BC0CA"/>
    <path fill-rule="evenodd" clip-rule="evenodd" d="M8.41786 8.62495C8.5749 8.41774 8.64748 8.15321 8.61963 7.88956C8.59178 7.6259 8.46578 7.38471 8.26936 7.21905C8.07294 7.05339 7.82217 6.97683 7.57224 7.00621C7.3223 7.03559 7.09367 7.1685 6.93663 7.37571C6.17453 8.38097 5.90912 9.35423 6.02666 10.3155C6.12903 11.1608 6.52714 11.894 6.82288 12.4353L6.85448 12.4953C7.1894 13.1153 7.39794 13.5246 7.44849 13.9405C7.48893 14.2712 7.43838 14.7138 6.93663 15.3751C6.77959 15.5823 6.70702 15.8468 6.73486 16.1105C6.76271 16.3742 6.88871 16.6153 7.08513 16.781C7.28156 16.9467 7.53232 17.0232 7.78225 16.9938C8.03219 16.9645 8.26082 16.8316 8.41786 16.6243C9.17996 15.6178 9.44537 14.6445 9.32783 13.6846C9.22546 12.8393 8.82735 12.106 8.53161 11.5647L8.50001 11.5034C8.16509 10.8848 7.95656 10.4741 7.906 10.0595C7.86556 9.72887 7.91611 9.28623 8.41786 8.62495ZM12.7402 8.62495C12.818 8.52235 12.8758 8.4046 12.9104 8.27842C12.9451 8.15224 12.9558 8.02011 12.942 7.88956C12.9282 7.75901 12.8902 7.6326 12.8301 7.51756C12.77 7.40251 12.689 7.30108 12.5917 7.21905C12.4945 7.13703 12.3828 7.07601 12.2632 7.03949C12.1436 7.00297 12.0184 6.99166 11.8946 7.00621C11.7708 7.02076 11.651 7.06088 11.542 7.12427C11.4329 7.18767 11.3368 7.27311 11.259 7.37571C10.4969 8.38097 10.2315 9.35423 10.349 10.3155C10.4514 11.1608 10.8495 11.894 11.1452 12.4353L11.1768 12.4953C11.5118 13.1153 11.7203 13.5246 11.7709 13.9405C11.8113 14.2712 11.7607 14.7138 11.259 15.3751C11.1812 15.4777 11.1234 15.5955 11.0888 15.7216C11.0542 15.8478 11.0434 15.9799 11.0572 16.1105C11.071 16.241 11.109 16.3675 11.1691 16.4825C11.2292 16.5975 11.3102 16.699 11.4075 16.781C11.5048 16.863 11.6164 16.924 11.736 16.9606C11.8556 16.9971 11.9809 17.0084 12.1046 16.9938C12.2284 16.9793 12.3482 16.9392 12.4573 16.8758C12.5663 16.8124 12.6625 16.7269 12.7402 16.6243C13.5023 15.6178 13.7677 14.6445 13.6502 13.6846C13.5478 12.8393 13.1497 12.106 12.854 11.5647L12.8224 11.5034C12.4875 10.8848 12.2789 10.4741 12.2284 10.0595C12.1879 9.72887 12.2385 9.28623 12.7402 8.62495ZM16.9147 7.21972C17.1109 7.38541 17.2367 7.62652 17.2645 7.89004C17.2922 8.15355 17.2196 8.4179 17.0626 8.62495C16.5608 9.2849 16.5103 9.72887 16.5507 10.0595C16.6013 10.4741 16.8098 10.8848 17.1447 11.5034L17.1776 11.5634C17.4721 12.106 17.8702 12.8393 17.9738 13.6832C18.0901 14.6445 17.8247 15.6178 17.0626 16.6243C16.9056 16.8316 16.6769 16.9645 16.427 16.9938C16.177 17.0232 15.9263 16.9467 15.7299 16.781C15.5334 16.6153 15.4074 16.3742 15.3796 16.1105C15.3517 15.8468 15.4243 15.5823 15.5814 15.3751C16.0831 14.7138 16.1337 14.2712 16.0932 13.9405C16.0427 13.5246 15.8341 13.1139 15.4992 12.4953L15.4664 12.4353C15.1719 11.894 14.7738 11.1608 14.6701 10.3155C14.5539 9.35556 14.8193 8.3823 15.5814 7.37571C15.6591 7.27303 15.7554 7.18753 15.8645 7.12411C15.9736 7.06068 16.0935 7.02058 16.2174 7.00609C16.3412 6.9916 16.4666 7.00302 16.5862 7.03967C16.7059 7.07633 16.8175 7.13751 16.9147 7.21972Z" fill="white"/>
</svg>
