<svg width="24" height="24" viewBox="0 0 25 24" fill="none" xmlns="http://www.w3.org/2000/svg">
    <rect x="0.5" width="24" height="24" rx="12" fill="#2BC0CA"/>
    <path d="M15.1522 16.5C15.1522 17.9912 13.8674 19.2 12.2826 19.2C10.6978 19.2 9.41304 17.9912 9.41304 16.5C9.41304 15.0088 10.6978 13.8 12.2826 13.8C13.8674 13.8 15.1522 15.0088 15.1522 16.5Z" fill="white"/>
    <path fill-rule="evenodd" clip-rule="evenodd" d="M10.3696 4.8C10.3696 3.80589 11.2261 3 12.2826 3C13.3392 3 14.1957 3.80589 14.1957 4.8V12.3744C15.8848 13.0688 17.0652 14.6547 17.0652 16.5C17.0652 18.9853 14.924 21 12.2826 21C9.64125 21 7.5 18.9853 7.5 16.5C7.5 14.6547 8.68044 13.0688 10.3696 12.3744V4.8ZM12.2826 3.9C12.8109 3.9 13.2391 4.30294 13.2391 4.8V13.0134C14.8893 13.4131 16.1087 14.8225 16.1087 16.5C16.1087 18.4882 14.3957 20.1 12.2826 20.1C10.1695 20.1 8.45652 18.4882 8.45652 16.5C8.45652 14.8225 9.67587 13.4131 11.3261 13.0134L11.3261 4.8C11.3261 4.30294 11.7543 3.9 12.2826 3.9Z" fill="white"/>
    <path fill-rule="evenodd" clip-rule="evenodd" d="M18.5 5.25H15.6304V4.35H18.5V5.25ZM17.0652 7.05H15.6304V6.15H17.0652V7.05ZM18.5 7.95V8.85H15.6304V7.95H18.5ZM17.0652 10.65H15.6304V9.75H17.0652V10.65ZM18.5 11.55V12.45H15.6304V11.55H18.5Z" fill="white"/>
</svg>
